Coordinates
version=1
nRows=12
nColumns=34
inDegrees=no

Units are S.I. units (second, meters, Newtons, ...)
If the header above contains a line with 'inDegrees', this indicates whether rotational values are in degrees (yes) or radians (no).

endheader
time	pelvis_tilt	pelvis_list	pelvis_rotation	pelvis_tx	pelvis_ty	pelvis_tz	hip_flexion_r	hip_adduction_r	hip_rotation_r	knee_angle_r	ankle_angle_r	subtalar_angle_r	mtp_angle_r	hip_flexion_l	hip_adduction_l	hip_rotation_l	knee_angle_l	ankle_angle_l	subtalar_angle_l	mtp_angle_l	lumbar_extension	lumbar_bending	lumbar_rotation	arm_flex_r	arm_add_r	arm_rot_r	elbow_flex_r	pro_sup_r	arm_flex_l	arm_add_l	arm_rot_l	elbow_flex_l	pro_sup_l
0.46	0.0728638	-0.0512351	0.00956246	0.411593	1.04562	-0.246866	-0.262062	0.104631	-0.234647	0.106087	0.258022	0.139267	-0.00373202	0.356586	-0.107839	-0.314301	0.122544	0.0386317	0.277413	-0.00449554	-0.337149	0.0702296	0.133198	0.171529	-0.271944	-0.132927	0.757296	2.13798	-0.22515	-0.224529	-0.186049	0.692044	2.06905
0.47	0.0729237	-0.0501695	0.00837491	0.423795	1.04295	-0.247492	-0.27219	0.100596	-0.242309	0.114145	0.274251	0.153257	-0.0037444	0.344234	-0.0948921	-0.308501	0.0567908	0.0434261	0.302824	-0.00450945	-0.339038	0.0682488	0.134185	0.177104	-0.274624	-0.131816	0.763539	2.13751	-0.223896	-0.221577	-0.193893	0.685374	2.06842
0.48	0.0735919	-0.0495527	0.0070092	0.43602	1.04032	-0.248137	-0.281581	0.0965986	-0.248676	0.125063	0.289525	0.165039	-0.00375679	0.334102	-0.084142	-0.298505	0.00496475	0.0488637	0.325994	-0.00452335	-0.3417	0.0666999	0.135175	0.182498	-0.276744	-0.131413	0.769325	2.1369	-0.221428	-0.218745	-0.200932	0.677369	2.06969
0.49	0.0747981	-0.0492723	0.00554498	0.448282	1.03777	-0.248779	-0.290345	0.0926058	-0.253414	0.138496	0.303363	0.174259	-0.00376918	0.32669	-0.0759287	-0.286034	-0.0312632	0.0554009	0.346988	-0.00453726	-0.345021	0.0654103	0.136075	0.187572	-0.278152	-0.13182	0.774573	2.13617	-0.217816	-0.216184	-0.206996	0.668118	2.07267
0.5	0.0764666	-0.0491221	0.00409482	0.46062	1.03534	-0.249412	-0.29863	0.0884505	-0.256406	0.153994	0.315335	0.180794	-0.00378157	0.322061	-0.0701531	-0.272848	-0.0515663	0.0631122	0.366036	-0.00455115	-0.348837	0.0640841	0.136721	0.19214	-0.2787	-0.133161	0.779217	2.13542	-0.213173	-0.214018	-0.211943	0.657796	2.0772
0.51	0.0785461	-0.0488138	0.00279798	0.473079	1.03308	-0.250033	-0.306589	0.0838819	-0.257739	0.171069	0.325065	0.184704	-0.00379397	0.319908	-0.0663552	-0.26045	-0.0568084	0.0716109	0.38332	-0.00456504	-0.352936	0.0623648	0.136919	0.195985	-0.278266	-0.135552	0.78321	2.13474	-0.207658	-0.212335	-0.21567	0.646677	2.08319
0.52	0.0809592	-0.0480092	0.00180055	0.485708	1.031	-0.250654	-0.314361	0.0786352	-0.257659	0.189272	0.332208	0.18616	-0.00380638	0.319736	-0.0638789	-0.249952	-0.0487189	0.0801192	0.398898	-0.00457892	-0.357124	0.0599086	0.136483	0.198881	-0.276773	-0.139067	0.786526	2.13422	-0.201455	-0.211188	-0.218112	0.635148	2.09064
0.53	0.083659	-0.0463966	0.0012196	0.49856	1.02913	-0.251292	-0.322013	0.0724893	-0.256505	0.208263	0.336422	0.185327	-0.00381879	0.321014	-0.0620268	-0.242	-0.029617	0.087585	0.412624	-0.0045928	-0.361217	0.0564384	0.135275	0.200628	-0.274195	-0.143714	0.789146	2.13394	-0.194763	-0.210584	-0.219231	0.623701	2.09946
0.54	0.0865546	-0.0437793	0.00111397	0.511663	1.02748	-0.251966	-0.329493	0.0652972	-0.254646	0.227883	0.33734	0.182286	-0.0038312	0.3232	-0.0601673	-0.236741	-0.00223132	0.0928242	0.424075	-0.00460667	-0.365057	0.0517684	0.133234	0.20107	-0.27057	-0.149412	0.791051	2.13393	-0.187783	-0.21049	-0.218995	0.61291	2.10947
0.55	0.089529	-0.0400776	0.00145574	0.52503	1.02607	-0.252688	-0.336583	0.0569983	-0.252425	0.248188	0.334541	0.176971	-0.00384362	0.325731	-0.0578027	-0.233853	0.0304462	0.094693	0.432543	-0.00462053	-0.368495	0.0458311	0.13039	0.200123	-0.265983	-0.155994	0.792212	2.13418	-0.180709	-0.210838	-0.217361	0.603384	2.12024
0.56	0.0924448	-0.0353189	0.00213565	0.538659	1.0249	-0.253471	-0.342896	0.0476054	-0.250139	0.269468	0.327539	0.169157	-0.00385604	0.32807	-0.0546095	-0.232705	0.0654648	0.0923215	0.437164	-0.00463439	-0.371401	0.0386726	0.126859	0.197778	-0.26056	-0.163231	0.792592	2.13464	-0.173709	-0.211538	-0.214259	0.595695	2.13119
0.57	0.0951429	-0.0296157	0.0029963	0.552535	1.02399	-0.254318	-0.347905	0.0371915	-0.248022	0.29223	0.315778	0.158482	-0.00386847	0.329813	-0.0504702	-0.232617	0.10033	0.0853622	0.437227	-0.00464824	-0.373677	0.0304457	0.122806	0.194098	-0.254452	-0.170854	0.792155	2.13524	-0.166919	-0.212496	-0.209603	0.590313	2.14162
